# Blender v2.79 (sub 0) OBJ File: 'Low Poly Laser Pistol 01.blend'
# www.blender.org
mtllib Low Poly Laser Pistol 1.mtl
o Laser_Pistol_01_Cube.003
v -0.108970 0.463408 -0.408509
v -0.082295 0.484322 -0.438791
v -0.067371 0.429854 -1.308402
v -0.075328 0.482963 -1.275456
v 0.108970 0.463409 -0.408509
v 0.082295 0.484322 -0.438791
v 0.067371 0.429854 -1.308402
v 0.075328 0.482963 -1.275456
v -0.088988 0.429529 -0.633642
v -0.079251 0.483370 -0.651998
v 0.088988 0.429529 -0.633642
v 0.079251 0.483370 -0.651998
v -0.098102 0.286801 -0.549736
v -0.125891 0.286801 -0.299046
v 0.125891 0.286801 -0.299046
v 0.098102 0.286801 -0.549736
v -0.125891 0.386141 -0.170823
v 0.125891 0.386141 -0.170823
v -0.098102 0.120493 -0.691723
v -0.125891 0.164580 -0.396947
v 0.125891 0.164580 -0.396947
v 0.098102 0.120493 -0.691723
v -0.125891 0.164580 -0.187311
v 0.125891 0.164580 -0.187311
v -0.098102 0.092264 -0.691723
v -0.125891 0.048178 -0.396947
v 0.125891 0.048178 -0.396947
v 0.098102 0.092264 -0.691723
v -0.098102 0.120493 -1.272627
v 0.098102 0.120493 -1.272627
v -0.098102 0.092264 -1.255575
v 0.098102 0.092264 -1.255575
v -0.136490 -0.112000 0.028233
v 0.136490 -0.112000 0.028233
v -0.073891 -0.230587 0.138461
v 0.073891 -0.230587 0.138461
v -0.125891 0.242043 -0.125262
v -0.071905 0.286801 -0.089410
v -0.125891 0.327588 -0.122837
v -0.125891 0.286801 -0.142144
v 0.071905 0.286801 -0.089410
v 0.125891 0.242043 -0.125262
v 0.125891 0.286801 -0.142144
v 0.125891 0.327588 -0.122837
v -0.070288 0.048178 -0.187311
v -0.125891 0.136625 -0.187311
v -0.125891 0.048178 -0.240045
v 0.125891 0.136625 -0.187311
v 0.070288 0.048178 -0.187311
v 0.125891 0.048178 -0.240045
v -0.136490 -0.035526 0.082403
v -0.082504 0.012079 0.116124
v 0.082504 0.012079 0.116124
v 0.136490 -0.035526 0.082403
v -0.136490 -0.175808 0.003711
v -0.080887 -0.230171 -0.017181
v 0.136490 -0.175808 0.003711
v 0.080887 -0.230171 -0.017181
v -0.019905 -0.171541 0.187311
v -0.073891 -0.214724 0.151585
v 0.073891 -0.214724 0.151585
v 0.019905 -0.171541 0.187311
v -0.073891 -0.241363 0.129545
v -0.018288 -0.286821 0.091936
v 0.018288 -0.286821 0.091936
v 0.073891 -0.241363 0.129545
v -0.131190 0.026290 -0.079539
v 0.131190 0.026290 -0.079539
v -0.077204 0.149440 0.013357
v -0.131190 0.103259 -0.021429
v 0.131190 -0.019592 -0.091800
v 0.075587 -0.090997 -0.102246
v -0.131190 -0.019592 -0.091800
v -0.075587 -0.090997 -0.102246
v 0.131190 0.103259 -0.021429
v 0.077204 0.149440 0.013357
v -0.073180 0.048178 -0.345790
v 0.073180 0.048178 -0.345790
v -0.073180 0.048178 -0.254584
v -0.040858 0.048178 -0.223929
v 0.040858 0.048178 -0.223929
v 0.073180 0.048178 -0.254584
v -0.053188 -0.111530 -0.410487
v 0.053188 -0.111530 -0.410487
v -0.053188 -0.111530 -0.344197
v -0.029696 -0.111530 -0.321917
v 0.029696 -0.111530 -0.321917
v 0.053188 -0.111530 -0.344197
v -0.098102 0.386141 -0.631149
v -0.125891 0.434784 -0.305532
v -0.070312 0.526766 -0.422157
v -0.070312 0.526766 -0.651998
v -0.070312 0.526766 -1.299610
v -0.070312 0.386141 -1.388645
v 0.070312 0.526766 -1.299610
v 0.070312 0.386141 -1.388645
v 0.098102 0.386141 -0.631149
v 0.070312 0.526766 -0.651998
v 0.070312 0.526766 -0.422157
v 0.125891 0.434784 -0.305532
v 0.098102 0.164580 -0.647637
v 0.098102 0.048178 -0.647637
v -0.098102 0.048178 -0.647637
v -0.098102 0.164580 -0.647637
v 0.098102 0.164580 -1.350762
v 0.098102 0.048178 -1.280450
v -0.098102 0.048178 -1.280450
v -0.098102 0.164580 -1.350762
vt 0.000000 0.000000
vt 0.000000 1.000000
vt 1.000000 1.000000
vt 1.000000 0.000000
vt 0.395222 0.036242
vt 0.000000 0.865574
vt -1.000000 0.865574
vt -1.395222 0.036242
vt -1.395222 -0.921689
vt 0.395222 -0.921689
vt 0.000000 0.500000
vt -1.000000 0.500000
vt -1.000000 -1.134426
vt 0.000000 -1.134426
vt 0.000000 0.105241
vt -1.000000 0.105241
vt -1.000000 -4.500000
vt 0.000000 -4.500000
vt 0.000000 0.738376
vt 1.000000 0.738376
vt 1.197611 -4.648261
vt -0.197611 -4.648261
vt 0.772802 0.293583
vt -1.009885 0.293583
vt -0.313700 -0.575547
vt 1.468987 -0.575547
vt 0.802389 0.000000
vt 2.197611 0.000000
vt 2.197611 -0.706417
vt 0.802389 -0.706417
vt 0.036242 0.345907
vt 2.351739 0.000000
vt 1.772802 -0.706417
vt -0.009885 -0.706417
vt 0.351740 0.000000
vt -1.963758 0.345907
vt -2.009885 -0.706417
vt -0.227198 -0.706417
vt -1.125627 -0.706417
vt -1.262926 -0.416376
vt -0.921689 0.000000
vt 0.754319 0.975305
vt 0.874373 1.293583
vt 1.990115 1.293583
vt 2.686300 0.424453
vt 1.195559 0.424453
vt 0.990115 0.293583
vt -0.125627 0.293583
vt -0.245681 -0.024695
vt 0.195559 -0.575547
vt 1.686300 -0.575547
vt 0.802389 0.468987
vt 2.197611 0.468987
vt 2.197611 5.468987
vt 0.802389 5.468987
vt 0.990115 0.293583
vt 2.772802 0.293583
vt 3.468987 -0.575547
vt 1.686300 -0.575547
vt 0.802389 0.293583
vt 2.197611 0.293583
vt 2.197611 -0.575547
vt 0.802389 -0.575547
vt 0.802389 0.468987
vt 2.197611 0.468987
vt 2.395222 -1.313700
vt 0.604778 -1.313700
vt 0.195559 0.424453
vt 1.686300 0.424453
vt 1.686300 -0.403295
vt 0.570559 -0.403295
vt 0.195559 0.225662
vt 1.036242 1.345907
vt 0.078311 1.000000
vt -0.262926 0.583624
vt 0.468987 0.424453
vt -1.313700 0.424453
vt -1.313700 -0.403295
vt 0.468987 -0.403295
vt 0.686300 0.424453
vt 2.468987 0.424453
vt 2.468987 -0.403295
vt 0.686300 -0.403295
vt 0.802389 0.424453
vt 2.197611 0.424453
vt 2.197611 -0.403295
vt 0.802389 -0.403295
vt 0.197611 0.468987
vt -1.197611 0.468987
vt -1.197611 4.968987
vt 0.197611 4.968987
vt 0.686300 0.424453
vt -0.804441 0.424453
vt -0.804441 0.225662
vt -0.429441 -0.403295
vt 0.686300 -0.403295
vt 0.395222 0.000000
vt -1.395222 0.000000
vt -1.395222 -0.416376
vt -1.011324 -0.706417
vt 0.011324 -0.706417
vt 0.395222 -0.416376
vt 0.395222 0.570559
vt -0.000177 0.195559
vt -0.209454 0.455956
vt 0.020390 0.673942
vt 0.025447 0.614382
vt -1.025447 0.614382
vt -1.025447 0.537754
vt -0.630049 0.214494
vt -0.369951 0.214494
vt 0.025447 0.537754
vt 0.025447 0.727186
vt -0.358451 1.034261
vt -0.641549 1.034261
vt -1.025447 0.727186
vt 0.604778 0.975305
vt 0.988676 1.293583
vt 0.604778 1.583624
vt 0.604778 1.293583
vt 0.011324 0.293583
vt 0.395222 -0.024695
vt 0.395222 0.293583
vt 0.395222 0.583624
vt 0.000177 0.596705
vt -0.395222 1.225662
vt -0.395222 0.596705
vt 0.395222 0.225662
vt -0.000177 -0.403295
vt 0.395222 -0.403295
vt 0.322519 0.596705
vt -0.326058 0.596705
vt 0.311193 -0.538990
vt 0.782589 -0.538990
vt 0.395222 0.686300
vt 0.395222 -0.429441
vt 0.020390 -0.326058
vt 0.020390 0.322519
vt 0.604778 0.686300
vt 2.395222 0.686300
vt 2.020390 0.322519
vt 0.979611 0.322519
vt 0.000177 0.195559
vt -0.395222 0.570559
vt -0.020389 0.673942
vt 0.209454 0.455956
vt 0.999823 0.195559
vt 0.790546 0.455956
vt 0.604778 0.570559
vt 0.604778 1.686300
vt 0.979611 1.322519
vt 0.979611 0.673942
vt 0.121773 0.782589
vt 0.878227 0.782589
vt 0.878227 0.311193
vt 0.711173 0.152757
vt 0.288827 0.152757
vt 0.121773 0.311193
vt 0.020390 0.596705
vt -0.209454 0.596705
vt -0.288827 -0.538990
vt -0.121773 -0.538990
vt 0.979611 0.596705
vt 2.020390 0.596705
vt 1.878227 -0.538990
vt 1.121773 -0.538990
vt 0.790546 0.596705
vt 0.209454 0.596705
vt 0.288827 -0.538990
vt 0.711173 -0.538990
vt 0.673942 0.596705
vt 1.322519 0.596705
vt 1.782589 -0.538990
vt 1.311193 -0.538990
vt -0.020389 0.596705
vt 0.121773 -0.538990
vt 0.764204 0.532031
vt 2.369871 0.310169
vt 0.986754 0.709855
vt 0.865574 1.000000
vt 4.932938 0.685678
vt 0.499932 0.691051
vt 0.500000 1.000000
vt 5.105241 1.000000
vt 5.168398 0.314169
vt 5.738376 0.000000
vt -0.067062 0.685678
vt 0.168398 0.314169
vt 0.738376 0.000000
vt 0.105241 1.000000
vt -4.630446 0.308989
vt -4.648261 0.000000
vt -1.013245 0.709855
vt 0.499643 0.689962
vt 0.500000 1.000000
vt -1.134426 1.000000
vt -1.235795 0.532031
vt 0.369553 0.308989
vt 0.351740 0.000000
vt 2.499643 0.689962
vt 2.500000 1.000000
vt 0.369871 0.310169
vt -4.500068 0.691051
vt -4.500000 1.000000
vt 0.782489 -0.089793
vt 0.782489 0.110951
vt 0.782489 1.110952
vt 0.782489 0.910207
vt 0.468987 0.596705
vt 0.468987 1.424453
vt 4.913358 0.110951
vt 4.792100 -0.089793
vt 4.968987 -0.403295
vt 5.468987 0.424453
vt 4.792100 0.910207
vt 4.913358 1.110951
vt 5.468987 1.424453
vt 4.968987 0.596705
vt 0.015955 0.988393
vt 0.429178 0.441061
vt -0.337203 -0.542333
vt -0.722409 0.001481
vt 0.086695 0.340003
vt -1.086695 0.340003
vt -0.641549 -0.965739
vt -0.358451 -0.965739
vt 0.516368 0.114791
vt 0.429178 0.441061
vt -0.337203 -0.542333
vt -0.162822 -0.996080
vt 0.015955 0.988393
vt -0.722409 0.001481
vt 0.516368 0.114791
vt -0.162822 -0.996080
vt 0.924806 0.985744
vt 2.075194 0.985745
vt 1.630049 0.209801
vt 1.369951 0.209801
vt 0.837178 0.003920
vt 0.662797 0.457667
vt -0.121041 -0.385618
vt -0.057643 -0.462246
vt 0.962491 0.607023
vt 2.037508 0.607023
vt 2.075194 -0.382660
vt 0.924806 -0.382660
vt 0.277591 0.001481
vt 0.662797 -0.542333
vt -0.121041 -1.385618
vt -0.214368 -1.272814
vt 0.662797 0.457667
vt 0.837178 0.003920
vt -0.057643 -0.462246
vt -0.121041 -0.385618
vt 0.277591 1.001481
vt -0.214368 -0.272814
vt 0.974553 -0.057643
vt 0.529408 0.837178
vt 0.768587 0.316793
vt 1.499373 1.293583
vt 1.754319 0.975305
vt 1.015955 -0.011607
vt 0.432907 0.114791
vt 0.470592 -0.996080
vt 0.075194 -1.382660
vt 0.037509 -0.392977
vt 0.567093 0.114791
vt 0.604778 1.225662
vt 1.000177 0.596705
vt 0.962491 -0.392977
vt 0.754319 1.975305
vt 0.499373 2.293583
vt -0.231413 1.316793
vt 0.025447 -1.272814
vt 0.470592 0.001481
vt 0.529408 0.001481
vt 0.974553 -1.272814
vt 1.358451 -0.965739
vt 0.913305 0.340003
vt 0.470592 0.837178
vt 0.025447 -0.057643
vt -0.369951 0.209801
vt 0.075194 0.985745
vt 0.049009 0.316793
vt -1.049009 0.316793
vt -1.086695 -0.659997
vt 0.086695 -0.659997
vt -1.011324 0.293583
vt -1.049009 -0.683207
vt 0.049009 -0.683207
vt 0.277591 0.001481
vt 1.015955 0.988393
vt 0.768587 1.316793
vt 0.037800 0.340003
vt 0.529408 0.003920
vt 0.567093 1.114791
vt 0.432907 -0.885209
vt 0.037509 -1.392977
vt 0.037800 0.340003
vt 0.768587 1.316793
vt 1.015955 0.988393
vt 0.999823 0.596705
vt 1.037509 -0.392977
vt -0.037509 -0.392977
vt -0.483632 -0.885209
vt -0.570822 -0.558939
vt 0.195559 0.424453
vt -0.245681 0.975305
vt -0.984045 -0.011607
vt -0.570822 -0.558939
vt 0.195559 0.225662
vt -0.483632 -0.885209
vt 0.429178 -0.558939
vt 0.015955 -0.011607
vn 0.0000 0.5349 -0.8449
vn 0.0000 0.7852 0.6193
vn 0.0000 0.9406 0.3396
vn 0.0000 1.0000 0.0000
vn 0.0000 -1.0000 0.0000
vn 0.9901 0.0879 -0.1097
vn 0.0000 -0.6339 -0.7734
vn -0.9951 -0.0331 -0.0932
vn 0.9951 -0.0331 -0.0932
vn -1.0000 0.0000 0.0000
vn 1.0000 0.0000 0.0000
vn -0.9901 0.0879 -0.1097
vn 0.0000 0.6252 -0.7805
vn 0.9939 0.0000 -0.1102
vn -0.9939 0.0000 -0.1102
vn 0.0000 -0.5170 -0.8560
vn 0.0000 0.6339 0.7734
vn 0.0000 -0.6375 0.7705
vn -0.6986 -0.0203 0.7152
vn 0.6986 -0.0203 0.7152
vn -0.6316 -0.3970 0.6659
vn 0.6316 -0.3970 0.6659
vn 0.9923 -0.1242 0.0000
vn 0.6171 -0.4424 0.6507
vn 0.0000 0.3755 -0.9268
vn 0.0000 -0.5230 0.8524
vn -0.9923 -0.1242 0.0000
vn -0.6171 -0.4424 0.6507
vn -0.9757 0.1876 -0.1127
vn -0.8587 0.5038 -0.0937
vn -0.9876 0.1572 -0.0031
vn -0.9994 -0.0285 -0.0199
vn 0.9994 -0.0285 -0.0199
vn 0.9854 0.1667 -0.0340
vn 0.9712 0.2381 -0.0072
vn 0.8587 0.5038 -0.0937
vn -0.9854 0.1667 -0.0340
vn -0.9712 0.2381 -0.0072
vn 0.9757 0.1876 -0.1127
vn 0.9876 0.1572 -0.0031
vn -0.9995 0.0187 -0.0256
vn -0.0000 0.3615 0.9324
vn 0.9993 0.0118 -0.0351
vn 0.9995 0.0187 -0.0256
vn -0.9993 0.0118 -0.0351
vn -0.0000 -0.8875 -0.4608
vn 0.9185 -0.1618 0.3609
vn -0.0000 -0.5215 -0.8532
vn -0.9314 -0.2144 0.2941
vn -0.9185 -0.1618 0.3609
vn 0.9314 -0.2144 0.2941
vn -0.6748 -0.7376 -0.0241
vn -0.7198 0.4334 0.5423
vn 0.6293 -0.3888 -0.6729
vn -0.6251 -0.3907 -0.6758
vn 0.7198 0.4334 0.5423
vn 0.5972 0.1017 0.7956
vn -0.5972 0.1017 0.7956
vn 0.6748 -0.7376 -0.0241
vn -0.0000 0.5991 0.8007
vn 0.7201 0.4331 0.5420
vn -0.6293 -0.3888 -0.6729
vn 0.6251 -0.3907 -0.6758
vn -0.7201 0.4331 0.5420
vn -0.9991 0.0070 -0.0420
vn 0.9995 0.0193 -0.0248
vn 0.9991 0.0070 -0.0420
vn -0.9995 0.0193 -0.0248
vn -0.9996 0.0193 -0.0197
vn 0.9156 0.3943 -0.0794
vn 0.9996 0.0193 -0.0197
vn -0.9156 0.3943 -0.0794
usemtl Metal_01
s off
f 94/1/1 93/2/1 95/3/1 96/4/1
f 100/5/2 99/6/2 91/7/2 90/8/2
f 100/5/3 90/8/3 17/9/3 18/10/3
f 98/11/4 92/12/4 91/13/4 99/14/4
f 95/15/4 93/16/4 92/17/4 98/18/4
f 94/19/5 96/20/5 97/21/5 89/22/5
f 16/23/6 15/24/6 21/25/6 101/26/6
f 89/27/7 97/28/7 16/29/7 13/30/7
f 90/31/8 89/32/8 13/33/8 14/34/8
f 97/35/9 100/36/9 15/37/9 16/38/9
f 90/31/10 14/34/10 40/39/10 39/40/10 17/41/10
f 37/42/10 40/43/10 14/44/10 20/45/10 23/46/10
f 15/47/11 43/48/11 42/49/11 24/50/11 21/51/11
f 104/52/4 101/53/4 105/54/4 108/55/4
f 14/56/12 13/57/12 104/58/12 20/59/12
f 13/60/13 16/61/13 101/62/13 104/63/13
f 103/64/5 102/65/5 27/66/5 26/67/5
f 23/68/10 20/69/10 26/70/10 47/71/10 46/72/10
f 15/47/11 100/73/11 18/74/11 44/75/11 43/48/11
f 101/76/14 21/77/14 27/78/14 102/79/14
f 20/80/15 104/81/15 103/82/15 26/83/15
f 108/84/16 105/85/16 106/86/16 107/87/16
f 102/88/5 103/89/5 107/90/5 106/91/5
f 21/92/11 24/93/11 48/94/11 50/95/11 27/96/11
f 18/97/17 17/98/17 39/99/17 38/100/17 41/101/17 44/102/17
f 50/103/5 49/104/5 81/105/5 82/106/5
f 36/107/18 35/108/18 63/109/18 64/110/18 65/111/18 66/112/18
f 61/113/18 62/114/18 59/115/18 60/116/18 35/108/18 36/107/18
f 37/117/19 38/118/19 39/119/19 40/120/19
f 41/121/20 42/122/20 43/123/20 44/124/20
f 45/125/21 46/126/21 47/127/21
f 48/128/22 49/129/22 50/130/22
f 78/131/23 82/132/23 88/133/23 84/134/23
f 27/135/5 50/136/5 82/137/5 78/138/5
f 26/139/5 27/140/5 78/141/5 77/142/5
f 45/143/5 47/144/5 79/145/5 80/146/5
f 49/147/5 45/143/5 80/146/5 81/148/5
f 47/149/5 26/150/5 77/151/5 79/152/5
f 83/153/5 84/154/5 88/155/5 87/156/5 86/157/5 85/158/5
f 82/159/24 81/160/24 87/161/24 88/162/24
f 77/163/25 78/164/25 84/165/25 83/166/25
f 81/167/26 80/168/26 86/169/26 87/170/26
f 79/171/27 77/172/27 83/173/27 85/174/27
f 80/168/28 79/175/28 85/176/28 86/169/28
f 1/177/29 9/178/29 89/32/29 90/31/29
f 2/179/30 1/177/30 90/31/30 91/180/30
f 4/181/31 10/182/31 92/183/31 93/184/31
f 3/185/32 4/181/32 93/184/32 94/186/32
f 8/187/33 7/188/33 96/189/33 95/190/33
f 7/188/34 11/191/34 97/192/34 96/189/34
f 6/193/35 12/194/35 98/195/35 99/196/35
f 5/197/36 6/193/36 99/196/36 100/36/36
f 9/198/37 3/185/37 94/186/37 89/199/37
f 10/200/38 2/179/38 91/180/38 92/201/38
f 11/202/39 5/197/39 100/36/39 97/35/39
f 12/203/40 8/187/40 95/190/40 98/204/40
f 28/205/11 22/206/11 101/76/11 102/79/11
f 19/207/10 25/208/10 103/209/10 104/210/10
f 30/211/11 32/212/11 106/213/11 105/214/11
f 31/215/10 29/216/10 108/217/10 107/218/10
f 22/206/11 30/211/11 105/214/11 101/76/11
f 29/216/10 19/207/10 104/210/10 108/217/10
f 25/208/10 31/215/10 107/218/10 103/209/10
f 32/212/11 28/205/11 102/79/11 106/213/11
usemtl Rubber_Handle_1
f 70/219/41 67/220/41 33/221/41 51/222/41
f 53/223/42 52/224/42 59/225/42 62/226/42
f 71/227/43 68/228/43 34/229/43 57/230/43
f 68/228/44 75/231/44 54/232/44 34/229/44
f 67/220/45 73/233/45 55/234/45 33/221/45
f 56/235/46 58/236/46 65/237/46 64/238/46
f 57/239/47 34/240/47 36/241/47 66/242/47
f 74/243/48 72/244/48 58/245/48 56/246/48
f 51/247/49 33/248/49 35/249/49 60/250/49
f 33/251/50 55/252/50 63/253/50 35/254/50
f 34/240/51 54/255/51 61/256/51 36/241/51
f 56/235/52 64/238/52 63/257/52 55/258/52
f 69/259/53 38/260/53 37/261/53 70/262/53
f 71/263/54 57/264/54 58/265/54 72/266/54
f 73/267/55 46/268/55 45/269/55 74/270/55
f 75/231/56 42/271/56 41/272/56 76/273/56
f 53/223/57 62/226/57 61/274/57 54/275/57
f 51/276/58 60/277/58 59/278/58 52/279/58
f 57/280/59 66/281/59 65/282/59 58/283/59
f 76/284/60 69/285/60 52/286/60 53/287/60
f 41/121/60 38/288/60 69/289/60 76/290/60
f 54/291/61 75/292/61 76/293/61 53/294/61
f 55/295/62 73/296/62 74/243/62 56/246/62
f 48/128/63 71/297/63 72/298/63 49/129/63
f 52/299/64 69/300/64 70/301/64 51/247/64
f 45/125/48 49/302/48 72/303/48 74/304/48
f 23/68/65 46/72/65 73/305/65 67/306/65
f 24/307/66 42/308/66 75/309/66 68/310/66
f 48/311/67 24/307/67 68/310/67 71/312/67
f 37/42/68 23/46/68 67/313/68 70/314/68
usemtl Blue_Glow
f 9/198/69 10/182/69 4/181/69 3/185/69
f 11/202/70 12/194/70 6/193/70 5/197/70
f 7/188/71 8/187/71 12/203/71 11/191/71
f 1/177/72 2/179/72 10/200/72 9/178/72
f 25/208/10 19/207/10 29/216/10 31/215/10
f 22/206/11 28/205/11 32/212/11 30/211/11
o Laser_Pistol_01_Barrel_Cylinder
v -0.077579 0.376691 -0.536636
v -0.061543 0.354619 -1.409637
v -0.125526 0.310699 -0.536636
v -0.099579 0.302268 -1.409637
v -0.125526 0.229127 -0.536636
v -0.099579 0.237558 -1.409637
v -0.077579 0.163134 -0.536636
v -0.061543 0.185206 -1.409637
v 0.000000 0.137927 -0.536636
v 0.000000 0.165210 -1.409637
v 0.077579 0.163134 -0.536636
v 0.061543 0.185206 -1.409637
v 0.125526 0.229127 -0.536636
v 0.099579 0.237558 -1.409637
v 0.125526 0.310698 -0.536636
v 0.099579 0.302268 -1.409637
v 0.077579 0.376691 -0.536636
v 0.061543 0.354619 -1.409637
v 0.000000 0.401898 -0.536636
v 0.000000 0.374616 -1.409637
v 0.125526 0.229127 -1.409637
v 0.077579 0.163134 -1.409637
v 0.125526 0.310698 -1.409637
v 0.077579 0.376691 -1.409637
v 0.000000 0.401898 -1.409637
v 0.000000 0.137927 -1.409637
v -0.077579 0.163134 -1.409637
v -0.125526 0.229127 -1.409637
v -0.125526 0.310699 -1.409637
v -0.077579 0.376691 -1.409637
v 0.099579 0.237558 -0.674759
v 0.061543 0.185206 -0.674759
v 0.099579 0.302268 -0.674759
v 0.061543 0.354619 -0.674759
v 0.000000 0.374616 -0.674759
v 0.000000 0.165210 -0.674759
v -0.061543 0.185206 -0.674759
v -0.099579 0.237558 -0.674759
v -0.099579 0.302268 -0.674759
v -0.061543 0.354619 -0.674759
vn 0.8090 0.5878 0.0000
vn 1.0000 -0.0000 0.0000
vn 0.3090 0.9511 0.0000
vn 0.8090 -0.5878 0.0000
vn 0.3090 -0.9511 0.0000
vn -0.3090 -0.9511 0.0000
vn -0.8090 -0.5878 0.0000
vn -1.0000 0.0000 0.0000
vn -0.8090 0.5878 0.0000
vn -0.3090 0.9511 0.0000
vn 0.0000 -0.0000 1.0000
vn 0.0000 0.0000 -1.0000
usemtl Full_Reflection
s off
f 132//73 125//73 123//73 131//73
f 131//74 123//74 121//74 129//74
f 133//75 127//75 125//75 132//75
f 129//76 121//76 119//76 130//76
f 130//77 119//77 117//77 134//77
f 134//78 117//78 115//78 135//78
f 135//79 115//79 113//79 136//79
f 136//80 113//80 111//80 137//80
f 137//81 111//81 109//81 138//81
f 138//82 109//82 127//82 133//82
f 125//83 127//83 109//83 111//83 113//83 115//83 117//83 119//83 121//83 123//83
f 120//84 122//84 129//84 130//84
f 122//84 124//84 131//84 129//84
f 124//84 126//84 132//84 131//84
f 126//84 128//84 133//84 132//84
f 116//84 118//84 134//84 135//84
f 118//84 120//84 130//84 134//84
f 114//84 116//84 135//84 136//84
f 112//84 114//84 136//84 137//84
f 110//84 112//84 137//84 138//84
f 128//84 110//84 138//84 133//84
usemtl Blue_Glow
f 126//79 124//79 141//79 142//79
f 142//84 141//84 139//84 140//84 144//84 145//84 146//84 147//84 148//84 143//84
f 110//77 128//77 143//77 148//77
f 116//73 114//73 146//73 145//73
f 128//78 126//78 142//78 143//78
f 122//81 120//81 140//81 139//81
f 114//74 112//74 147//74 146//74
f 118//75 116//75 145//75 144//75
f 124//80 122//80 139//80 141//80
f 112//76 110//76 148//76 147//76
f 120//82 118//82 144//82 140//82
